{"title":"Chef Academy S01E04 TVRip-XVID Dodecahedron [Dodecahedron]","uid":5206523,"size":183607296,"categoryP":"video","categoryS":"tv_shows","magnet":"?xt=urn:btih:bc696445086800b6198fe3a68e24671cb84e2a4b&amp;dn=Chef+Academy+S01E04+TVRip-XVID+Dodecahedron+%5BDodecahedron%5D&amp;tr=udp%3A%2F%2Ftracker.openbittorrent.com%3A80&amp;tr=udp%3A%2F%2Fopen.demonii.com%3A1337&amp;tr=udp%3A%2F%2Ftracker.coppersurfer.tk%3A6969&amp;tr=udp%3A%2F%2Fexodus.desync.com%3A6969","seeders":0,"leechers":1,"uploader":"Dodecahedron9","files":-1,"time":1260396021,"description":"Chef Academy S01E04 TVRip-XVID Dodecahedron\n\nEpisode 4: &quot;A Bun in the oven&quot;\n\nHere's this week's episode, the source quality was not the standard HDTV,  \nso the 350mb size was not justified at all.\n\n-----\n\n   General\n\n      Format : AVI\n      Format/Info : Audio Video Interleave\n      File size : 175 MiB\n      Duration : 44mn 24s\n      Overall bit rate : 551 Kbps\n      Writing application : VirtualDubMod 1.5.4.1 (build 2178/release)\n      Writing library : VirtualDubMod build 2178/release\n\n   Video\n\n      Format : MPEG-4 Visual\n      Format profile : Streaming Video@L1\n      Format settings, BVOP : Yes\n      Format settings, QPel : No\n      Format settings, GMC : No warppoints\n      Format settings, Matrix : Custom\n      Codec ID : XVID\n      Codec ID/Hint : XviD\n      Duration : 44mn 24s\n      Bit rate : 421 Kbps\n      Width : 384 pixels\n      Height : 288 pixels\n      Display aspect ratio : 4/3\n      Frame rate : 23.976 fps\n      Resolution : 24 bits\n      Colorimetry : 4:2:0\n      Scan type : Progressive\n      Bits/(Pixel*Frame) : 0.159\n      Stream size : 134 MiB (76%)\n      Writing library : XviD 50\n\n   Audio\n\n      Format : MPEG Audio\n      Format version : Version 1\n      Format profile : Layer 3\n      Codec ID : 55\n      Codec ID/Hint : MP3\n      Duration : 44mn 24s\n      Bit rate mode : Variable\n      Bit rate : 118 Kbps\n      Minimum bit rate : 128 Kbps\n      Channel(s) : 2 channels\n      Sampling rate : 48.0 KHz\n      Resolution : 16 bits\n      Stream size : 37.5 MiB (21%)\n      Alignment : Aligned on interleaves\n      Interleave, duration : 24 ms (0.58 video frame)\n      Interleave, preload duration : 534 ms\n      Writing library : LAME3.98r\n      Encoding settings : ABR\n","torrent":{"xt":"urn:btih:bc696445086800b6198fe3a68e24671cb84e2a4b","amp;dn":"Chef+Academy+S01E04+TVRip-XVID+Dodecahedron+%5BDodecahedron%5D","amp;tr":["udp%3A%2F%2Ftracker.openbittorrent.com%3A80","udp%3A%2F%2Fopen.demonii.com%3A1337","udp%3A%2F%2Ftracker.coppersurfer.tk%3A6969","udp%3A%2F%2Fexodus.desync.com%3A6969"],"infoHash":"bc696445086800b6198fe3a68e24671cb84e2a4b","infoHashBuffer":{"type":"Buffer","data":[188,105,100,69,8,104,0,182,25,143,227,166,142,36,103,28,184,78,42,75]},"announce":[],"urlList":[]}}